# xmcd CD database file
#
# Track frame offsets:
#	182
#	36917
#	78955
#	104925
#	131975
#	153912
#	172910
#	200162
#	221000
#	238997
#	264272
#
# Disc length: 3888 seconds
#
# Revision: 0
# Processed by: cddbd v1.5.2PL0 Copyright (c) Steve Scherf et al.
# Submitted via: CDex 1.51
#
DISCID=a20f2e0b
DTITLE=Babik Reinhardt - Nuances
DYEAR=1992
DGENRE=Jazz
TTITLE0=Nuances
TTITLE1=Une Histoire Simple n°1
TTITLE2=Colol Trane
TTITLE3=Père
TTITLE4=Rak Babik
TTITLE5=Amis Blues
TTITLE6=Afrique a la Quarte
TTITLE7=Lousson
TTITLE8=Ou êtes-vous?
TTITLE9=Birdy's
TTITLE10=Une Histoire Simple n°2
EXTD=YEAR: 1992
EXTT0=
EXTT1=
EXTT2=
EXTT3=
EXTT4=
EXTT5=
EXTT6=
EXTT7=
EXTT8=
EXTT9=
EXTT10=
PLAYORDER=
